<svg aria-hidden="true" style="position: absolute; width: 0; height: 0; overflow: hidden;" version="1.1"
    xmlns="http://www.w3.org/2000/svg" xmlns:xlink="http://www.w3.org/1999/xlink">
    <defs>
        <symbol id="lamp" viewBox="0 0 30 32">
            <path
                d="M17.632 23.055c1.893-0.485 3.537-1.553 4.754-3.087 1.493-1.881 2.155-4.23 1.864-6.614s-1.5-4.506-3.403-5.972c-1.844-1.421-4.142-2.053-6.471-1.779s-4.419 1.422-5.882 3.232c-1.255 1.552-1.939 3.424-1.979 5.413-0.065 3.23-1.178 6.365-3.134 8.83l-2.14 2.696c-0.949 1.196-0.749 2.941 0.447 3.891l2.018 1.602c1.196 0.949 2.941 0.749 3.891-0.447l2.14-2.696c1.978-2.491 4.702-4.248 7.897-5.068zM7.655 14.271c0.035-1.734 0.632-3.365 1.726-4.718 2.628-3.25 7.46-3.819 10.77-1.267 1.66 1.281 2.713 3.129 2.967 5.207s-0.323 4.126-1.625 5.766c-1.062 1.337-2.494 2.268-4.144 2.691-3.366 0.863-6.259 2.69-8.381 5.289l-4.561-3.621c2.028-2.632 3.181-5.943 3.249-9.347zM2.374 26.181l0.287-0.362 4.152 4.149-0.112 0.141c-0.059 0.075-0.125 0.141-0.193 0.202l-4.134-4.131zM3.375 24.919l0.322-0.406 4.568 3.626-0.737 0.929-4.152-4.149zM2.396 28.771c-0.48-0.381-0.687-0.98-0.592-1.546l3.498 3.495c-0.314-0.023-0.624-0.138-0.888-0.348l-2.018-1.601z">
            </path>
            <path
                d="M10.46 11.598c0.151-0.262 0.325-0.515 0.518-0.753 0.198-0.245 0.16-0.604-0.085-0.803-0.243-0.197-0.604-0.16-0.803 0.085-0.23 0.285-0.438 0.588-0.619 0.901-0.143 0.248-0.079 0.559 0.139 0.732 0.022 0.017 0.045 0.033 0.070 0.048 0.273 0.157 0.622 0.064 0.779-0.21z">
            </path>
            <path
                d="M7.702 20.475c0.046 0.037 0.099 0.067 0.158 0.088 0.296 0.109 0.624-0.042 0.733-0.338 0.7-1.9 1.076-3.889 1.117-5.913 0.007-0.335 0.042-0.668 0.106-0.992 0.061-0.309-0.141-0.609-0.45-0.67s-0.609 0.141-0.67 0.45c-0.076 0.389-0.119 0.788-0.127 1.189-0.038 1.897-0.39 3.761-1.047 5.541-0.088 0.237-0.007 0.495 0.18 0.644z">
            </path>
            <path
                d="M18.896 19.692c-0.149-0.278-0.495-0.382-0.773-0.233-0.403 0.216-0.835 0.385-1.285 0.5-0.305 0.078-0.489 0.389-0.411 0.695 0.032 0.125 0.104 0.23 0.198 0.305 0.135 0.107 0.317 0.152 0.497 0.106 0.539-0.138 1.058-0.34 1.541-0.6 0.278-0.149 0.382-0.495 0.233-0.773z">
            </path>
            <path
                d="M18.961 9.964c2.464 1.956 2.878 5.553 0.922 8.017-0.111 0.14-0.23 0.276-0.352 0.404-0.218 0.228-0.209 0.589 0.019 0.807 0.013 0.012 0.026 0.024 0.040 0.035 0.228 0.181 0.562 0.162 0.767-0.053 0.146-0.153 0.288-0.316 0.421-0.483 2.347-2.957 1.851-7.273-1.106-9.62-0.247-0.196-0.606-0.155-0.802 0.092s-0.155 0.606 0.092 0.802z">
            </path>
            <path
                d="M21.56 6.69c0.247 0.196 0.606 0.155 0.802-0.092l1.987-2.503c0.196-0.247 0.155-0.606-0.092-0.802s-0.606-0.155-0.802 0.092l-1.987 2.503c-0.196 0.247-0.155 0.606 0.092 0.802z">
            </path>
            <path
                d="M16.338 3.984c-0.031 0.209 0.055 0.409 0.21 0.531 0.076 0.060 0.168 0.102 0.271 0.117 0.312 0.046 0.602-0.169 0.648-0.481l0.469-3.16c0.046-0.312-0.169-0.602-0.481-0.648s-0.602 0.169-0.648 0.481l-0.469 3.16z">
            </path>
            <path
                d="M20.936 27.092l-1.174-2.971c-0.116-0.293-0.447-0.437-0.741-0.321s-0.437 0.447-0.321 0.74l1.174 2.971c0.038 0.096 0.1 0.177 0.176 0.237 0.154 0.123 0.368 0.162 0.565 0.084 0.293-0.116 0.437-0.447 0.321-0.74z">
            </path>
            <path
                d="M9.767 1.931l1.174 2.971c0.038 0.096 0.1 0.177 0.176 0.237 0.154 0.123 0.368 0.162 0.565 0.084 0.293-0.116 0.437-0.447 0.321-0.74l-1.174-2.971c-0.116-0.293-0.447-0.437-0.741-0.321s-0.437 0.447-0.321 0.74z">
            </path>
            <path
                d="M26.478 22.615l-2.503-1.987c-0.247-0.196-0.606-0.155-0.802 0.092s-0.155 0.606 0.092 0.802l2.503 1.987c0.247 0.196 0.606 0.155 0.802-0.092s0.155-0.606-0.092-0.802z">
            </path>
            <path
                d="M7.531 8.303c0.196-0.247 0.155-0.606-0.092-0.802l-2.503-1.987c-0.247-0.196-0.606-0.155-0.802 0.092s-0.155 0.606 0.092 0.802l2.503 1.987c0.247 0.196 0.606 0.155 0.802-0.092z">
            </path>
            <path
                d="M25.441 16.509c0.076 0.060 0.168 0.102 0.271 0.117l3.16 0.469c0.312 0.046 0.602-0.169 0.648-0.481s-0.169-0.602-0.481-0.648l-3.16-0.469c-0.312-0.046-0.602 0.169-0.648 0.481-0.031 0.209 0.056 0.409 0.21 0.531z">
            </path>
            <path
                d="M4.992 12.397l-3.16-0.469c-0.312-0.046-0.602 0.169-0.648 0.481-0.031 0.209 0.056 0.409 0.21 0.531 0.076 0.060 0.168 0.102 0.271 0.117l3.16 0.469c0.312 0.046 0.602-0.169 0.648-0.481s-0.169-0.602-0.481-0.648z">
            </path>
            <path
                d="M24.64 10.842c0.038 0.096 0.1 0.177 0.175 0.237 0.154 0.123 0.368 0.162 0.565 0.084l2.971-1.174c0.293-0.116 0.437-0.447 0.321-0.741s-0.447-0.437-0.741-0.321l-2.971 1.174c-0.293 0.116-0.437 0.447-0.321 0.741z">
            </path>
        </symbol>

        <symbol id="menu" viewBox="0 0 56 32">
            <path
                d="M0 1.882c0-1.040 0.843-1.882 1.882-1.882h52.706c1.040 0 1.882 0.843 1.882 1.882v1.882c0 1.040-0.843 1.882-1.882 1.882h-52.706c-1.040 0-1.882-0.843-1.882-1.882v-1.882z">
            </path>
            <path
                d="M0 15.059c0-1.040 0.843-1.882 1.882-1.882h52.706c1.040 0 1.882 0.843 1.882 1.882v1.882c0 1.040-0.843 1.882-1.882 1.882h-52.706c-1.040 0-1.882-0.843-1.882-1.882v-1.882z">
            </path>
            <path
                d="M0 28.235c0-1.040 0.843-1.882 1.882-1.882h36.178c1.040 0 1.882 0.843 1.882 1.882v1.882c0 1.040-0.843 1.882-1.882 1.882h-36.178c-1.040 0-1.882-0.843-1.882-1.882v-1.882z">
            </path>
        </symbol>
    </defs>
</svg>